<svg width="24" height="24" viewBox="0 0 24 24" fill="none" xmlns="http://www.w3.org/2000/svg">
<path d="M1.88068 16V8.72727H4.4233C4.92992 8.72727 5.34777 8.81487 5.67685 8.99006C6.00592 9.16288 6.25095 9.39607 6.41193 9.68963C6.57292 9.98082 6.65341 10.304 6.65341 10.6591C6.65341 10.9716 6.59777 11.2296 6.48651 11.4332C6.3776 11.6368 6.23319 11.7978 6.05327 11.9162C5.87571 12.0346 5.68277 12.1222 5.47443 12.179V12.25C5.69697 12.2642 5.92069 12.3423 6.1456 12.4844C6.3705 12.6264 6.55871 12.83 6.71023 13.0952C6.86174 13.3603 6.9375 13.6847 6.9375 14.0682C6.9375 14.4328 6.85464 14.7607 6.68892 15.0518C6.5232 15.343 6.2616 15.5739 5.90412 15.7443C5.54664 15.9148 5.08144 16 4.50852 16H1.88068ZM2.76136 15.2188H4.50852C5.08381 15.2188 5.49219 15.1075 5.73366 14.8849C5.97751 14.66 6.09943 14.3878 6.09943 14.0682C6.09943 13.822 6.0367 13.5947 5.91122 13.3864C5.78575 13.1757 5.60701 13.0076 5.375 12.8821C5.14299 12.7543 4.86837 12.6903 4.55114 12.6903H2.76136V15.2188ZM2.76136 11.9233H4.39489C4.66004 11.9233 4.89915 11.8712 5.11222 11.767C5.32765 11.6629 5.49811 11.5161 5.62358 11.3267C5.75142 11.1373 5.81534 10.9148 5.81534 10.6591C5.81534 10.3395 5.70407 10.0684 5.48153 9.84588C5.259 9.62098 4.90625 9.50852 4.4233 9.50852H2.76136V11.9233ZM8.38459 8.72727H9.43572L11.9073 14.7642H11.9925L14.4641 8.72727H15.5153V16H14.6914V10.4744H14.6204L12.3477 16H11.5522L9.27947 10.4744H9.20845V16H8.38459V8.72727ZM16.8833 9.50852V8.72727H22.3379V9.50852H20.051V16H19.1703V9.50852H16.8833Z" fill="black"/>
</svg>
