<svg width="24" height="24" viewBox="0 0 24 24" fill="none" xmlns="http://www.w3.org/2000/svg">
<path d="M5.05682 16.5V7.77273H8.10795C8.71591 7.77273 9.21733 7.87784 9.61222 8.08807C10.0071 8.29545 10.3011 8.57528 10.4943 8.92756C10.6875 9.27699 10.7841 9.66477 10.7841 10.0909C10.7841 10.4659 10.7173 10.7756 10.5838 11.0199C10.4531 11.2642 10.2798 11.4574 10.0639 11.5994C9.85085 11.7415 9.61932 11.8466 9.36932 11.9148V12C9.63636 12.017 9.90483 12.1108 10.1747 12.2812C10.4446 12.4517 10.6705 12.696 10.8523 13.0142C11.0341 13.3324 11.125 13.7216 11.125 14.1818C11.125 14.6193 11.0256 15.0128 10.8267 15.3622C10.6278 15.7116 10.3139 15.9886 9.88494 16.1932C9.45597 16.3977 8.89773 16.5 8.21023 16.5H5.05682ZM6.11364 15.5625H8.21023C8.90057 15.5625 9.39063 15.429 9.6804 15.1619C9.97301 14.892 10.1193 14.5653 10.1193 14.1818C10.1193 13.8864 10.044 13.6136 9.89347 13.3636C9.7429 13.1108 9.52841 12.9091 9.25 12.7585C8.97159 12.6051 8.64205 12.5284 8.26136 12.5284H6.11364V15.5625ZM6.11364 11.608H8.07386C8.39205 11.608 8.67898 11.5455 8.93466 11.4205C9.19318 11.2955 9.39773 11.1193 9.5483 10.892C9.7017 10.6648 9.77841 10.3977 9.77841 10.0909C9.77841 9.70739 9.64489 9.3821 9.37784 9.11506C9.1108 8.84517 8.6875 8.71023 8.10795 8.71023H6.11364V11.608ZM12.3842 8.71023V7.77273H18.9297V8.71023H16.1854V16.5H15.1286V8.71023H12.3842Z" fill="black"/>
</svg>
